<?xml version="1.0" encoding="UTF-8" standalone="no"?>
<!-- Created with Inkscape (http://www.inkscape.org/) -->

<svg
   width="56.978008mm"
   height="63.540745mm"
   viewBox="0 0 56.978008 63.540745"
   version="1.1"
   id="svg5"
   xml:space="preserve"
   inkscape:version="1.2.1 (9c6d41e410, 2022-07-14)"
   sodipodi:docname="komora-logo.svg"
   xmlns:inkscape="http://www.inkscape.org/namespaces/inkscape"
   xmlns:sodipodi="http://sodipodi.sourceforge.net/DTD/sodipodi-0.dtd"
   xmlns="http://www.w3.org/2000/svg"
   xmlns:svg="http://www.w3.org/2000/svg"><sodipodi:namedview
     id="namedview7"
     pagecolor="#ffffff"
     bordercolor="#000000"
     borderopacity="0.25"
     inkscape:showpageshadow="2"
     inkscape:pageopacity="0.0"
     inkscape:pagecheckerboard="0"
     inkscape:deskcolor="#d1d1d1"
     inkscape:document-units="mm"
     showgrid="false"
     inkscape:zoom="0.51276154"
     inkscape:cx="99.461438"
     inkscape:cy="197.94776"
     inkscape:window-width="1920"
     inkscape:window-height="1001"
     inkscape:window-x="-9"
     inkscape:window-y="-9"
     inkscape:window-maximized="1"
     inkscape:current-layer="layer1" /><defs
     id="defs2" /><g
     inkscape:label="Vrstva 1"
     inkscape:groupmode="layer"
     id="layer1"
     transform="translate(-48.610556,-149.1459)"><path
       id="rect461"
       style="fill:#000000;stroke-width:0.352465;stop-color:#000000;fill-opacity:1"
       d="m 79.035486,149.14697 c -0.387355,-0.0209 -0.758,0.26345 -1.335319,0.84077 -0.952849,0.95285 -1.510881,4.78726 -2.04587,14.05754 -0.4046,7.01093 -0.757798,13.04663 -0.784448,13.41314 -0.0266,0.3665 -0.632509,0.66662 -1.346688,0.66662 -0.746549,0 -1.684958,-1.4165 -2.207617,-3.33209 -5.878025,-21.54344 -6.115195,-22.07894 -8.654252,-19.53989 -1.332049,1.33204 -1.367654,2.1093 -0.342615,7.51427 2.544137,13.41517 2.868347,22.46581 0.805119,22.46581 -0.45559,0 -3.221682,-1.68842 -6.147429,-3.75171 -4.193246,-2.95716 -5.630957,-3.55507 -6.789766,-2.82412 -2.583908,1.62989 -2.214102,2.73693 2.786393,8.34109 2.750587,3.08264 6.310933,8.4764 8.120951,12.3021 3.873606,8.18731 5.105357,9.68172 9.729122,11.80496 4.414166,2.02699 9.095609,2.10595 13.779004,0.23203 4.467706,-1.78762 7.365207,-6.41971 9.338965,-14.93036 1.527933,-6.58831 3.026088,-9.9067 8.539534,-18.9146 1.95152,-3.18843 3.33591,-6.34968 3.07681,-7.0249 -0.97757,-2.5475 -3.31551,-1.03093 -7.69617,4.99194 -4.280921,5.88572 -7.046598,7.81449 -7.046598,4.91443 0,-0.71773 1.242867,-5.75761 2.762105,-11.19983 2.501603,-8.96116 2.631923,-10.02571 1.377694,-11.27993 -2.213963,-2.21396 -3.86853,-0.0236 -6.475057,8.57208 -2.733427,9.01415 -4.522518,12.8064 -5.698877,12.07937 -0.48017,-0.29676 -0.851111,-6.27961 -0.851111,-13.73715 0,-11.06958 -0.236324,-13.44843 -1.459342,-14.67145 -0.64317,-0.64317 -1.047184,-0.96922 -1.434538,-0.99012 z m 7.984525,45.92174 c 0.930114,0.0679 -1.22282,2.04583 -3.837491,3.13831 -3.918427,1.63722 -9.00149,1.54277 -12.606466,-0.23409 -3.790236,-1.86817 -3.166643,-2.35476 1.635042,-1.27589 3.646347,0.81928 9.558865,0.24024 13.640511,-1.33584 0.57527,-0.22213 0.953763,-0.30815 1.168404,-0.29249 z"
       sodipodi:nodetypes="ssscsssssssssssssssssssssssssssss" /></g></svg>
